<?xml version="1.0" encoding="utf-8"?>
<!-- Generator: Adobe Illustrator 22.0.1, SVG Export Plug-In . SVG Version: 6.00 Build 0)  -->
<svg version="1.1" id="Layer_1" xmlns="http://www.w3.org/2000/svg" xmlns:xlink="http://www.w3.org/1999/xlink" x="0px" y="0px"
	 viewBox="0 0 100 100" style="enable-background:new 0 0 100 100;" xml:space="preserve">
<style type="text/css">
	.st0{fill:#FFCACA;}
	.st1{fill:#333333;}
</style>
<circle class="st0" cx="34.7" cy="65.5" r="15.8"/>
<g>
	<path class="st1" d="M37.2,42.5l12.6,7.3c0.2,0.1,0.4,0.2,0.6,0.2c0.2,0,0.4-0.1,0.6-0.2l12.6-7.3c0.4-0.2,0.6-0.7,0.6-1.1V26.8
		c0-0.5-0.2-0.9-0.6-1.1l-12.6-7.3c-0.4-0.2-0.9-0.2-1.3,0l-12.6,7.3c-0.4,0.2-0.6,0.7-0.6,1.1v14.6C36.6,41.9,36.8,42.3,37.2,42.5z
		 M39.2,27.6L50.5,21l11.3,6.6v13.1l-11.3,6.6l-11.3-6.6V27.6z"/>
	<path class="st1" d="M35.3,64l-5.7-3.3c-0.4-0.2-0.9-0.2-1.3,0L22.7,64c-0.4,0.2-0.6,0.7-0.6,1.1v6.6c0,0.5,0.2,0.9,0.6,1.1
		l5.7,3.3c0.2,0.1,0.4,0.2,0.6,0.2s0.4-0.1,0.6-0.2l5.7-3.3c0.4-0.2,0.6-0.7,0.6-1.1v-6.6C36,64.7,35.7,64.3,35.3,64z M33.4,71
		L29,73.5L24.6,71v-5.1l4.4-2.5l4.4,2.5V71z"/>
	<path class="st1" d="M56.8,64l-5.7-3.3c-0.4-0.2-0.9-0.2-1.3,0L44.2,64c-0.4,0.2-0.6,0.7-0.6,1.1v6.6c0,0.5,0.2,0.9,0.6,1.1
		l5.7,3.3c0.2,0.1,0.4,0.2,0.6,0.2c0.2,0,0.4-0.1,0.6-0.2l5.7-3.3c0.4-0.2,0.6-0.7,0.6-1.1v-6.6C57.5,64.7,57.2,64.3,56.8,64z
		 M54.9,71l-4.4,2.5L46.1,71v-5.1l4.4-2.5l4.4,2.5V71z"/>
	<path class="st1" d="M78.3,64l-5.7-3.3c-0.4-0.2-0.9-0.2-1.3,0L65.7,64c-0.4,0.2-0.6,0.7-0.6,1.1v6.6c0,0.5,0.2,0.9,0.6,1.1
		l5.7,3.3c0.2,0.1,0.4,0.2,0.6,0.2s0.4-0.1,0.6-0.2l5.7-3.3c0.4-0.2,0.6-0.7,0.6-1.1v-6.6C79,64.7,78.7,64.3,78.3,64z M76.4,71
		L72,73.5L67.6,71v-5.1l4.4-2.5l4.4,2.5V71z"/>
	<path class="st1" d="M40.8,58.6l4.3-4.3c0.5-0.5,0.5-1.3,0-1.8c-0.5-0.5-1.3-0.5-1.8,0l-2.1,2.1v-5.9c0-0.7-0.6-1.3-1.3-1.3
		s-1.3,0.6-1.3,1.3v5.9l-2.1-2.1c-0.5-0.5-1.3-0.5-1.8,0c-0.5,0.5-0.5,1.3,0,1.8l4.3,4.3c0,0,0,0,0,0c0.1,0.1,0.2,0.2,0.4,0.3
		c0.2,0.1,0.3,0.1,0.5,0.1s0.3,0,0.5-0.1C40.6,58.8,40.7,58.7,40.8,58.6C40.8,58.6,40.8,58.6,40.8,58.6z"/>
	<path class="st1" d="M62,58.6l4.3-4.3c0.5-0.5,0.5-1.3,0-1.8c-0.5-0.5-1.3-0.5-1.8,0l-2.1,2.1v-5.9c0-0.7-0.6-1.3-1.3-1.3
		s-1.3,0.6-1.3,1.3v5.9l-2.1-2.1c-0.5-0.5-1.3-0.5-1.8,0c-0.5,0.5-0.5,1.3,0,1.8l4.3,4.3c0,0,0,0,0.1,0c0.1,0.1,0.2,0.2,0.4,0.2
		c0.2,0.1,0.3,0.1,0.5,0.1s0.3,0,0.5-0.1C61.7,58.8,61.8,58.7,62,58.6C62,58.6,62,58.6,62,58.6z"/>
</g>
</svg>
